STARTFONT 2.1
FONT -Mine
FONTBOUNDINGBOX 17 15 0 0
STARTPROPERTIES 3
FONT_ASCENT 15
FONT_DESCENT 0
FONT_NAME "Scrolly Font"
SIZE 15 75 75
ENDPROPERTIES
CHARS 60
STARTCHAR space
ENCODING 32
SWIDTH 1000 0
DWIDTH 6 0
BBX 1 0 0 0
BITMAP
ENDCHAR
STARTCHAR exclam
ENCODING 33
SWIDTH 1000 0
DWIDTH 7 0
BBX 5 15 1 0
BITMAP
38
38
38
38
38
70
70
70
70
00
00
00
E0
E0
E0
ENDCHAR
STARTCHAR quotedbl
ENCODING 34
SWIDTH 1000 0
DWIDTH 10 0
BBX 8 5 1 0
BITMAP
E700
E700
E700
C600
C600
ENDCHAR
STARTCHAR numbersign
ENCODING 35
SWIDTH 1000 0
DWIDTH 17 0
BBX 15 13 1 0
BITMAP
0E38
0E38
3FFE
3FFE
7FFC
1C70
1C70
1C70
7FFC
FFF8
FFF8
38E0
38E0
ENDCHAR
STARTCHAR dollar
ENCODING 36
SWIDTH 1000 0
DWIDTH 13 0
BBX 11 15 1 0
BITMAP
0600
3FC0
3FE0
76E0
76E0
7600
7E00
3F80
0FC0
0DC0
EDC0
EDC0
FF80
7F80
0C00
ENDCHAR
STARTCHAR percent
ENCODING 37
SWIDTH 1000 0
DWIDTH 16 0
BBX 14 15 0 0
BITMAP
1C00
3E18
363C
3E78
1CF0
01E0
03C0
0780
0F00
1E00
3CE0
79F0
F1B0
61F0
00E0
ENDCHAR
STARTCHAR ampersand
ENCODING 38
SWIDTH 1000 0
DWIDTH 14 0
BBX 12 15 1 0
BITMAP
0FE0
1FF0
3FF0
3870
3800
3800
1C00
3EE0
7FE0
77E0
E3C0
E1C0
FFE0
FFF0
7F70
ENDCHAR
STARTCHAR quotesingle
ENCODING 39
SWIDTH 1000 0
DWIDTH 5 0
BBX 3 5 1 0
BITMAP
E0
E0
E0
C0
C0
ENDCHAR
STARTCHAR parenleft
ENCODING 40
SWIDTH 1000 0
DWIDTH 8 0
BBX 6 15 1 0
BITMAP
1C
38
38
70
70
70
E0
E0
E0
E0
E0
70
70
70
38
ENDCHAR
STARTCHAR parenright
ENCODING 41
SWIDTH 1000 0
DWIDTH 8 0
BBX 6 15 1 0
BITMAP
70
38
38
38
1C
1C
1C
1C
1C
38
38
38
70
70
E0
ENDCHAR
STARTCHAR
ENCODING 42
SWIDTH 1000 0
DWIDTH 14 0
BBX 12 13 1 0
BITMAP
1820
3870
1CF0
1DE0
0FC0
FFF0
FFF0
FFF0
3F00
7B80
F380
E1C0
4180
ENDCHAR
STARTCHAR
ENCODING 43
SWIDTH 1000 0
DWIDTH 13 0
BBX 11 11 1 0
BITMAP
0700
0700
0700
0E00
FFE0
FFE0
FFE0
0E00
1C00
1C00
1C00
ENDCHAR
STARTCHAR
ENCODING 44
SWIDTH 1000 0
DWIDTH 6 0
BBX 4 5 1 0
BITMAP
70
70
70
60
C0
ENDCHAR
STARTCHAR
ENCODING 45
SWIDTH 1000 0
DWIDTH 13 0
BBX 11 3 1 0
BITMAP
FFE0
FFE0
FFE0
ENDCHAR
STARTCHAR
ENCODING 46
SWIDTH 1000 0
DWIDTH 5 0
BBX 3 3 1 0
BITMAP
E0
E0
E0
ENDCHAR
STARTCHAR
ENCODING 47
SWIDTH 1000 0
DWIDTH 9 0
BBX 7 15 1 0
BITMAP
0E
0E
0E
1C
1C
1C
38
38
38
70
70
70
E0
E0
E0
ENDCHAR
STARTCHAR
ENCODING 48
SWIDTH 1000 0
DWIDTH 14 0
BBX 12 15 1 0
BITMAP
0FE0
1FF0
3FF0
3870
38F0
71E0
73E0
76E0
7CE0
78E0
F1C0
E1C0
FFC0
FF80
7F00
ENDCHAR
STARTCHAR
ENCODING 49
SWIDTH 1000 0
DWIDTH 8 0
BBX 6 15 1 0
BITMAP
1C
3C
7C
FC
FC
F8
38
38
38
38
70
70
70
70
70
ENDCHAR
STARTCHAR
ENCODING 50
SWIDTH 1000 0
DWIDTH 14 0
BBX 12 15 1 0
BITMAP
0FE0
1FF0
3FF0
3870
3870
00E0
07E0
1FC0
3F80
7800
7000
E000
FFC0
FFC0
FFC0
ENDCHAR
STARTCHAR
ENCODING 51
SWIDTH 1000 0
DWIDTH 14 0
BBX 12 15 1 0
BITMAP
0FE0
1FF0
3FF0
3870
0070
00E0
07E0
0FC0
0FE0
00E0
00E0
E1C0
FFC0
FF80
7F00
ENDCHAR
STARTCHAR
ENCODING 52
SWIDTH 1000 0
DWIDTH 14 0
BBX 12 15 1 0
BITMAP
00E0
01E0
03E0
07E0
0FE0
0FC0
1DC0
39C0
79C0
FFF0
FFE0
FFE0
0380
0380
0380
ENDCHAR
STARTCHAR
ENCODING 53
SWIDTH 1000 0
DWIDTH 14 0
BBX 12 15 1 0
BITMAP
3FF0
3FF0
3FF0
3800
3800
7000
7FC0
7FE0
7FE0
00E0
00E0
E1C0
FFC0
FFC0
7F80
ENDCHAR
STARTCHAR
ENCODING 54
SWIDTH 1000 0
DWIDTH 14 0
BBX 12 15 1 0
BITMAP
0FE0
1FF0
3FF0
3870
3800
7000
7FC0
7FE0
7FE0
E0E0
E0E0
E1C0
FFC0
FFC0
7F80
ENDCHAR
STARTCHAR
ENCODING 55
SWIDTH 1000 0
DWIDTH 12 0
BBX 10 15 1 0
BITMAP
FFC0
FFC0
FFC0
0380
0380
0380
0700
0700
0700
0E00
0E00
0E00
1C00
1C00
1C00
ENDCHAR
STARTCHAR
ENCODING 56
SWIDTH 1000 0
DWIDTH 14 0
BBX 12 15 1 0
BITMAP
0FE0
1FF0
3FF0
3870
7070
70E0
7FE0
3FC0
7FE0
70E0
E0E0
E1C0
FFC0
FF80
7F00
ENDCHAR
STARTCHAR
ENCODING 57
SWIDTH 1000 0
DWIDTH 13 0
BBX 11 15 1 0
BITMAP
3FC0
7FE0
7FE0
70E0
E0E0
E0E0
FFC0
FFC0
7FC0
01C0
0380
0780
FF00
FE00
FC00
ENDCHAR
STARTCHAR
ENCODING 58
SWIDTH 1000 0
DWIDTH 7 0
BBX 5 9 1 0
BITMAP
38
78
70
00
00
00
70
F0
E0
ENDCHAR
STARTCHAR
ENCODING 59
SWIDTH 1000 0
DWIDTH 7 0
BBX 5 11 1 0
BITMAP
38
78
70
00
00
00
70
F0
E0
C0
80
ENDCHAR
STARTCHAR
ENCODING 60
SWIDTH 1000 0
DWIDTH 10 0
BBX 8 13 1 0
BITMAP
0100
0300
0700
1E00
3C00
7800
F000
7000
3800
3C00
1C00
0C00
0400
ENDCHAR
STARTCHAR
ENCODING 61
SWIDTH 1000 0
DWIDTH 14 0
BBX 12 9 1 0
BITMAP
3FF0
7FF0
7FE0
0000
0000
0000
7FE0
FFE0
FFC0
ENDCHAR
STARTCHAR
ENCODING 62
SWIDTH 1000 0
DWIDTH 10 0
BBX 8 13 1 0
BITMAP
2000
3000
3800
3C00
1C00
0E00
0F00
1E00
3C00
7800
E000
C000
8000
ENDCHAR
STARTCHAR
ENCODING 63
SWIDTH 1000 0
DWIDTH 12 0
BBX 10 15 1 0
BITMAP
3F80
7FC0
FFC0
E1C0
01C0
0380
0780
0F00
1E00
1C00
0000
0000
3800
3800
3800
ENDCHAR
STARTCHAR
ENCODING 64
SWIDTH 1000 0
DWIDTH 16 0
BBX 14 15 1 0
BITMAP
0FF8
1FFC
3FFC
381C
381C
71F8
73F8
7338
7338
73F8
E1F0
E000
FFE0
FFE0
7FC0
ENDCHAR
STARTCHAR
ENCODING 65
SWIDTH 1000 0
DWIDTH 14 0
BBX 12 15 0 0
BITMAP
01C0
01C0
03C0
03C0
07E0
07E0
0EE0
0EE0
1CE0
1FE0
3FE0
3FF0
7070
7070
E070
ENDCHAR
STARTCHAR
ENCODING 66
SWIDTH 1000 0
DWIDTH 14 0
BBX 12 15 1 0
BITMAP
3FE0
3FF0
3FF0
3870
3870
70F0
7FE0
7FC0
7FE0
70E0
E1E0
E1E0
FFC0
FFC0
FF00
ENDCHAR
STARTCHAR
ENCODING 67
SWIDTH 1000 0
DWIDTH 14 0
BBX 12 15 1 0
BITMAP
0FE0
1FF0
3FF0
3870
3870
7000
7000
7000
7000
7000
E1C0
E1C0
FFC0
FF80
7F00
ENDCHAR
STARTCHAR
ENCODING 68
SWIDTH 1000 0
DWIDTH 14 0
BBX 12 15 1 0
BITMAP
3FC0
3FE0
3FF0
3870
3870
70E0
70E0
70E0
70E0
70E0
E1C0
E1C0
FFC0
FF80
FF00
ENDCHAR
STARTCHAR
ENCODING 69
SWIDTH 1000 0
DWIDTH 14 0
BBX 12 15 1 0
BITMAP
3FF0
3FF0
3FF0
3800
3800
7000
7F80
7F80
7F80
7000
E000
E000
FFC0
FFC0
FFC0
ENDCHAR
STARTCHAR
ENCODING 70
SWIDTH 1000 0
DWIDTH 14 0
BBX 12 15 1 0
BITMAP
3FF0
3FF0
3FF0
3800
3800
7000
7F80
7F80
7F80
7000
E000
E000
E000
E000
E000
ENDCHAR
STARTCHAR
ENCODING 71
SWIDTH 1000 0
DWIDTH 14 0
BBX 12 15 1 0
BITMAP
0FE0
1FF0
3FF0
3870
3800
7000
73E0
73E0
73E0
70E0
E1C0
E1C0
FFC0
FF80
7F00
ENDCHAR
STARTCHAR
ENCODING 72
SWIDTH 1000 0
DWIDTH 14 0
BBX 12 15 1 0
BITMAP
3870
3870
3870
3870
3870
70E0
7FE0
7FE0
7FE0
70E0
E1C0
E1C0
E1C0
E1C0
E1C0
ENDCHAR
STARTCHAR
ENCODING 73
SWIDTH 1000 0
DWIDTH 7 0
BBX 5 15 1 0
BITMAP
38
38
38
38
38
70
70
70
70
70
E0
E0
E0
E0
E0
ENDCHAR
STARTCHAR
ENCODING 74
SWIDTH 1000 0
DWIDTH 13 0
BBX 11 15 1 0
BITMAP
00E0
00E0
00E0
00E0
00E0
01C0
01C0
01C0
01C0
01C0
E380
E380
FF80
FF80
7F00
ENDCHAR
STARTCHAR
ENCODING 75
SWIDTH 1000 0
DWIDTH 14 0
BBX 12 15 1 0
BITMAP
3870
38E0
39C0
39C0
3B80
7700
7F00
7E00
7C00
7E00
EE00
E700
E380
E380
E1C0
ENDCHAR
STARTCHAR
ENCODING 76
SWIDTH 1000 0
DWIDTH 11 0
BBX 9 15 1 0
BITMAP
3800
3800
3800
3800
3800
7000
7000
7000
7000
7000
E000
E000
FF80
FF80
FF80
ENDCHAR
STARTCHAR
ENCODING 77
SWIDTH 1000 0
DWIDTH 18 0
BBX 16 15 1 0
BITMAP
3807
380F
380F
3C1F
3C1F
7C3E
7E7E
7E7E
7EEE
77EE
E7DC
E7DC
E79C
E39C
E31C
ENDCHAR
STARTCHAR
ENCODING 78
SWIDTH 1000 0
DWIDTH 14 0
BBX 12 15 1 0
BITMAP
3870
3870
3C70
3C70
3C70
7EE0
7EE0
7FE0
77E0
77E0
E7C0
E3C0
E3C0
E1C0
E1C0
ENDCHAR
STARTCHAR
ENCODING 79
SWIDTH 1000 0
DWIDTH 15 0
BBX 13 15 1 0
BITMAP
07E0
1FF0
1FF0
3C78
3838
7038
7070
7070
7070
E070
E0E0
F1E0
7FC0
7FC0
3F00
ENDCHAR
STARTCHAR
ENCODING 80
SWIDTH 1000 0
DWIDTH 14 0
BBX 12 15 1 0
BITMAP
3FE0
3FF0
3FF0
3870
3870
70E0
7FE0
7FE0
7FC0
7000
E000
E000
E000
E000
E000
ENDCHAR
STARTCHAR
ENCODING 81
SWIDTH 1000 0
DWIDTH 15 0
BBX 13 15 2 0
BITMAP
0FE0
1FF0
3FF0
3870
3870
70E0
70E0
70E0
70E0
71E0
E3C0
E1E0
FFF0
FFF8
7F30
ENDCHAR
STARTCHAR
ENCODING 82
SWIDTH 1000 0
DWIDTH 14 0
BBX 12 15 1 0
BITMAP
3FE0
3FF0
3FF0
3870
3870
70E0
7FE0
7FE0
7FC0
7700
E700
E380
E380
E1C0
E1C0
ENDCHAR
STARTCHAR
ENCODING 83
SWIDTH 1000 0
DWIDTH 13 0
BBX 11 15 1 0
BITMAP
1FC0
3FE0
3FE0
78E0
70E0
7000
7F80
3FC0
1FC0
01C0
E1C0
E3C0
FF80
FF80
7F00
ENDCHAR
STARTCHAR
ENCODING 84
SWIDTH 1000 0
DWIDTH 13 0
BBX 11 15 1 0
BITMAP
FFE0
FFE0
FFE0
0E00
0E00
1C00
1C00
1C00
1C00
1C00
3800
3800
3800
3800
3800
ENDCHAR
STARTCHAR
ENCODING 85
SWIDTH 1000 0
DWIDTH 14 0
BBX 12 15 1 0
BITMAP
3870
3870
3870
3870
7070
70E0
70E0
70E0
70E0
E0E0
E1C0
E1C0
FFC0
FF80
7F00
ENDCHAR
STARTCHAR
ENCODING 86
SWIDTH 1000 0
DWIDTH 13 0
BBX 11 15 1 0
BITMAP
E0E0
E0E0
E1C0
E1C0
E380
E380
E700
E700
7E00
7E00
7C00
7C00
7800
7800
7000
ENDCHAR
STARTCHAR
ENCODING 87
SWIDTH 1000 0
DWIDTH 19 0
BBX 17 15 1 0
BITMAP
E00380
E00380
E00700
E18700
E38E00
E38E00
E79C00
E79C00
7FF800
7FF800
7DF000
79F000
79E000
71E000
71C000
ENDCHAR
STARTCHAR
ENCODING 88
SWIDTH 1000 0
DWIDTH 15 0
BBX 13 15 0 0
BITMAP
3838
3870
1C70
1CE0
0FC0
0F80
0780
0700
0F00
0F80
1F80
39C0
71C0
70E0
E0E0
ENDCHAR
STARTCHAR
ENCODING 89
SWIDTH 1000 0
DWIDTH 13 0
BBX 11 15 1 0
BITMAP
E0E0
E0E0
F1C0
73C0
7380
3F00
3F00
1E00
1C00
1C00
3800
3800
3800
3800
3800
ENDCHAR
STARTCHAR
ENCODING 90
SWIDTH 1000 0
DWIDTH 14 0
BBX 12 15 1 0
BITMAP
3FF0
3FF0
3FE0
01C0
03C0
0380
0700
0F00
0E00
1C00
3C00
3800
7FC0
FFC0
FFC0
ENDCHAR
ENDFONT
